<?xml version="1.0" standalone="no"?>
<!DOCTYPE svg PUBLIC "-//W3C//DTD SVG 20010904//EN"
 "http://www.w3.org/TR/2001/REC-SVG-20010904/DTD/svg10.dtd">
<svg version="1.0" xmlns="http://www.w3.org/2000/svg"
 width="640.000000pt" height="606.000000pt" viewBox="0 0 640.000000 606.000000"
 preserveAspectRatio="xMidYMid meet">
<metadata>
Created by potrace 1.15, written by Peter Selinger 2001-2017
</metadata>
<g transform="translate(0.000000,606.000000) scale(0.100000,-0.100000)"
fill="#000000" stroke="none">
<path d="M79 6035 c-20 -15 -42 -37 -49 -51 -8 -13 -17 -24 -21 -24 -4 0 -7
-36 -7 -80 0 -44 3 -80 7 -80 4 0 13 -11 19 -25 6 -13 29 -36 50 -50 37 -24
53 -30 112 -40 43 -7 84 -14 118 -19 17 -3 44 -8 60 -10 165 -29 385 -66 415
-70 56 -9 107 -17 130 -22 12 -2 39 -6 62 -10 22 -3 43 -9 46 -12 3 -4 27 -61
53 -127 63 -158 67 -167 77 -187 5 -10 9 -25 9 -33 0 -8 5 -15 10 -15 6 0 10
-9 10 -20 0 -11 4 -28 9 -38 5 -9 30 -71 56 -137 26 -66 51 -128 56 -137 5
-10 9 -25 9 -33 0 -8 5 -15 10 -15 6 0 10 -11 10 -25 0 -14 5 -25 10 -25 6 0
10 -9 10 -20 0 -11 4 -28 9 -38 5 -9 24 -55 42 -102 38 -101 57 -149 70 -172
5 -10 9 -25 9 -33 0 -8 5 -15 10 -15 6 0 10 -11 10 -25 0 -14 5 -25 10 -25 6
0 10 -8 10 -19 0 -17 77 -218 101 -263 5 -10 9 -25 9 -33 0 -8 5 -15 10 -15 6
0 10 -11 10 -25 0 -14 5 -25 10 -25 6 0 10 -9 10 -20 0 -11 4 -28 9 -38 5 -9
30 -71 56 -137 25 -66 50 -128 56 -137 5 -10 9 -25 9 -33 0 -8 5 -15 10 -15 6
0 10 -11 10 -25 0 -14 5 -25 10 -25 6 0 10 -8 10 -19 0 -10 21 -70 46 -132 25
-63 51 -125 56 -139 6 -14 14 -33 19 -42 5 -10 9 -25 9 -33 0 -8 5 -15 10 -15
6 0 10 -10 10 -23 0 -13 4 -27 8 -32 4 -6 16 -35 27 -65 10 -30 31 -82 47
-114 15 -33 28 -68 28 -78 0 -10 5 -18 10 -18 6 0 10 -11 10 -25 0 -14 5 -25
10 -25 6 0 10 -11 10 -25 0 -14 5 -25 10 -25 6 0 10 -11 10 -24 0 -14 4 -27 9
-30 4 -3 11 -19 14 -34 3 -16 17 -53 31 -83 13 -30 28 -67 31 -82 4 -15 11
-27 16 -27 5 0 9 -11 9 -25 0 -14 5 -25 10 -25 6 0 10 -11 10 -25 0 -14 5 -25
10 -25 6 0 10 -11 10 -25 0 -14 5 -25 10 -25 6 0 10 -8 10 -17 0 -21 49 -154
61 -168 23 -25 -4 -52 -226 -224 -233 -182 -352 -293 -390 -367 -11 -22 -23
-41 -26 -44 -6 -5 -33 -81 -31 -90 0 -3 -4 -10 -10 -17 -5 -7 -7 -17 -4 -22 4
-5 2 -12 -3 -15 -5 -4 -8 -17 -6 -31 1 -14 -2 -28 -6 -31 -12 -7 -11 -91 1
-99 5 -3 7 -19 3 -35 -4 -21 -2 -30 7 -30 8 0 11 -3 7 -6 -9 -9 34 -90 86
-161 45 -60 118 -126 185 -166 17 -10 32 -22 32 -26 0 -3 -15 -13 -33 -20 -84
-37 -212 -207 -201 -267 2 -13 0 -24 -5 -24 -12 0 -12 -88 -1 -95 5 -3 7 -12
4 -20 -11 -27 52 -139 104 -186 64 -58 92 -81 106 -84 6 -1 22 -7 36 -12 31
-13 240 -15 240 -2 0 5 3 8 8 7 54 -11 227 162 237 239 2 15 4 28 5 28 6 0 4
158 -2 161 -4 3 -5 11 -1 19 3 8 0 15 -7 15 -6 0 -9 4 -6 9 8 13 -67 124 -102
152 l-31 24 1522 1 1523 0 -41 -37 c-53 -49 -107 -140 -109 -183 0 -19 -4 -38
-9 -42 -11 -11 -8 -84 3 -84 6 0 8 -11 6 -25 -3 -14 -1 -25 4 -25 5 0 7 -6 4
-13 -7 -18 65 -126 108 -162 61 -52 78 -65 78 -60 0 3 16 -4 36 -14 29 -16 56
-19 140 -19 57 0 106 3 109 8 3 5 11 7 18 5 19 -7 128 76 164 125 18 25 38 51
44 58 5 6 6 12 2 12 -4 0 -2 4 4 8 7 5 14 20 15 35 1 15 5 27 8 27 3 0 5 37 4
83 -1 45 -3 82 -4 82 -1 0 -3 12 -5 27 -4 30 -52 106 -98 155 l-29 31 115 -5
c63 -3 123 -2 134 2 10 5 22 7 27 6 4 -1 14 4 22 10 8 6 14 8 14 4 0 -14 66
49 91 87 35 52 34 130 -2 182 -24 37 -78 78 -114 89 -11 4 -900 9 -1976 12
-2137 6 -2037 3 -2076 61 -18 28 -27 144 -11 144 6 0 8 7 4 15 -3 8 -1 15 5
15 6 0 7 5 4 10 -3 6 -1 10 4 10 6 0 11 6 11 13 0 25 74 89 387 331 215 167
331 250 350 253 15 1 55 5 88 8 33 2 89 7 125 10 68 5 141 11 250 19 36 3 94
7 130 10 66 6 146 12 255 21 150 11 194 15 255 20 61 5 106 8 255 19 116 9
191 15 255 21 36 3 94 8 130 11 36 2 90 7 120 9 30 2 87 7 125 10 39 2 99 7
135 10 61 5 91 8 260 20 36 3 90 7 120 10 89 8 244 20 385 30 58 4 114 9 220
19 28 3 60 7 73 10 33 7 95 60 111 93 7 15 17 35 21 43 4 8 6 26 5 40 -2 14 1
30 6 35 4 6 6 27 4 48 -1 20 1 37 6 37 6 0 8 18 5 40 -3 22 -1 42 4 45 6 3 8
21 5 40 -2 19 0 37 5 40 6 3 8 21 5 40 -2 19 0 37 5 40 6 3 8 21 5 40 -2 19 0
37 5 40 6 3 8 21 5 40 -2 19 0 37 5 40 5 3 8 24 6 45 -2 22 0 40 5 40 6 0 8
18 5 40 -3 22 -1 42 4 45 6 3 8 21 5 40 -2 19 0 37 5 40 5 3 8 21 6 41 -1 19
1 37 5 39 4 3 7 22 8 42 4 88 7 119 13 129 4 6 5 25 3 42 -2 17 0 34 5 37 6 3
8 21 5 40 -2 19 0 37 5 40 6 3 8 21 5 40 -2 19 0 37 5 40 5 3 8 21 6 41 -1 19
1 37 5 39 4 3 7 22 8 42 4 88 7 119 13 129 4 6 5 25 3 42 -2 17 0 34 5 37 6 3
8 21 5 40 -2 19 0 37 5 40 6 3 8 21 5 40 -2 19 0 37 5 40 5 3 8 21 6 41 -1 19
0 37 4 39 3 2 7 59 8 127 l3 123 -34 36 c-18 20 -46 44 -61 54 -35 23 -15 22
-761 40 -245 6 -529 13 -810 20 -110 3 -294 8 -410 10 -115 3 -298 8 -405 10
-107 3 -289 8 -405 10 -115 3 -302 8 -415 10 -468 12 -605 15 -805 20 -115 2
-246 6 -290 9 -44 2 -110 5 -147 5 -47 1 -68 5 -68 14 0 6 -14 39 -30 72 -17
33 -30 67 -30 77 0 10 -4 18 -10 18 -5 0 -10 11 -10 25 0 14 -4 25 -10 25 -5
0 -10 11 -10 25 0 14 -4 25 -10 25 -5 0 -10 8 -10 18 0 21 -56 169 -76 199 -8
12 -14 31 -14 43 0 11 -4 20 -10 20 -5 0 -10 11 -10 25 0 14 -4 25 -10 25 -5
0 -10 11 -10 25 0 14 -4 25 -10 25 -5 0 -10 8 -10 18 0 22 -72 206 -82 210 -4
2 -8 15 -8 28 0 13 -4 24 -10 24 -5 0 -10 11 -10 25 0 14 -4 25 -10 25 -5 0
-10 11 -10 24 0 14 -4 27 -9 30 -4 3 -11 20 -15 38 -14 69 -98 167 -146 171
-11 1 -20 4 -20 8 0 3 -10 5 -22 5 -13 -1 -27 0 -33 3 -5 3 -21 7 -35 7 -14 1
-25 3 -25 4 0 2 -13 4 -30 5 -16 2 -30 4 -30 5 0 2 -13 4 -30 5 -16 2 -30 4
-30 5 0 2 -13 4 -30 5 -16 2 -30 4 -30 5 0 2 -13 4 -30 5 -16 2 -30 4 -30 5 0
2 -13 4 -30 5 -16 2 -30 4 -30 5 0 2 -13 4 -30 5 -16 2 -30 4 -30 5 0 2 -12 3
-27 4 -15 1 -30 5 -33 8 -4 4 -17 4 -30 2 -13 -2 -26 0 -30 5 -3 5 -17 8 -30
5 -14 -2 -25 0 -25 6 0 6 -13 8 -30 5 -19 -3 -30 -1 -30 6 0 7 -11 9 -30 6
-18 -4 -30 -2 -30 4 0 6 -10 10 -22 9 -13 -1 -25 -1 -28 0 -3 2 -16 3 -30 4
-14 1 -29 4 -35 7 -5 3 -53 7 -105 8 -88 2 -98 0 -131 -24z m2339 -1711 l82
-6 -2 -301 -3 -302 -155 -3 -155 -2 -40 105 c-22 58 -43 105 -47 105 -5 0 -8
11 -8 25 0 14 -4 25 -10 25 -5 0 -10 11 -10 25 0 14 -4 25 -10 25 -5 0 -10 11
-10 24 0 14 -4 27 -9 30 -4 3 -11 19 -14 34 -3 16 -20 59 -36 96 -17 37 -31
73 -31 81 0 8 -4 15 -10 15 -5 0 -10 8 -10 19 0 18 9 19 198 15 108 -2 234 -6
280 -10z m815 -18 c16 0 17 -21 17 -298 l0 -298 -300 0 -300 0 0 305 0 305
283 -7 c155 -3 290 -6 300 -7z m407 -10 c102 -3 220 -5 263 -5 l77 -1 0 -290
0 -290 -297 2 -298 3 -3 275 c-1 151 0 285 3 298 5 20 10 22 38 17 18 -3 115
-7 217 -9z m854 -20 c121 -3 223 -9 228 -14 5 -5 7 -130 6 -278 l-3 -269 -302
-3 -303 -2 0 288 0 289 78 -3 c42 -2 176 -5 296 -8z m761 -21 c99 -2 186 -4
193 -4 9 -1 12 -62 12 -271 l0 -270 -290 0 -290 0 0 274 0 275 48 4 c26 2 70
2 97 0 28 -2 131 -6 230 -8z m813 -20 c17 -3 32 -10 33 -15 3 -30 1 -57 -6
-73 -4 -10 -5 -31 -2 -47 4 -16 2 -32 -3 -35 -5 -3 -8 -21 -5 -40 2 -19 0 -37
-5 -40 -6 -3 -8 -21 -5 -40 2 -19 0 -37 -5 -40 -6 -3 -8 -21 -5 -40 2 -19 0
-37 -5 -40 -5 -3 -8 -19 -6 -36 2 -17 -2 -41 -8 -55 l-11 -24 -210 2 -210 3
-3 266 -2 266 212 -4 c117 -1 228 -5 246 -8z m-2818 -940 l0 -275 -300 0 -300
0 0 270 0 270 298 3 c163 1 298 3 300 5 1 1 2 -122 2 -273z m1478 -3 l-3 -267
-302 -3 -303 -2 0 272 0 273 305 -3 305 -3 -2 -267z m-2230 1 c-3 -246 -4
-268 -20 -271 -12 -2 -21 6 -28 23 -5 14 -21 51 -35 81 -14 30 -25 61 -25 69
0 8 -4 15 -10 15 -5 0 -10 11 -10 25 0 14 -4 25 -10 25 -5 0 -10 11 -10 25 0
14 -4 25 -10 25 -5 0 -10 10 -10 23 0 13 -4 27 -8 33 -4 5 -16 34 -26 64 -11
30 -27 72 -38 93 l-18 37 130 0 130 0 -2 -267z m1482 -3 l0 -270 -297 2 -298
3 -3 268 -2 267 300 0 300 0 0 -270z m1480 0 l0 -270 -290 0 -290 0 0 270 0
270 290 0 290 0 0 -270z m565 240 c2 -14 -1 -30 -6 -35 -4 -6 -6 -25 -4 -43 2
-17 0 -34 -5 -37 -6 -3 -8 -21 -5 -40 2 -19 0 -37 -5 -40 -6 -3 -8 -21 -5 -40
2 -19 0 -37 -5 -40 -5 -3 -8 -24 -6 -45 2 -22 0 -40 -5 -40 -6 0 -8 -18 -5
-40 3 -22 1 -42 -4 -45 -5 -3 -8 -19 -6 -35 l3 -30 -178 0 -179 0 0 270 0 270
207 -2 206 -3 2 -25z m-2775 -940 c0 -269 -1 -290 -17 -291 -54 -3 -291 -22
-420 -34 -58 -5 -63 -4 -63 14 0 11 -4 23 -10 26 -5 3 -10 15 -10 26 0 10 -4
19 -10 19 -5 0 -10 11 -10 25 0 14 -4 25 -10 25 -5 0 -10 11 -10 24 0 14 -4
27 -9 30 -17 11 -24 65 -30 244 l-6 182 303 0 302 0 0 -290z m730 28 l-5 -262
-40 -2 c-22 -1 -78 -5 -125 -9 -47 -4 -103 -8 -125 -10 -22 -1 -80 -6 -130
-10 -49 -4 -108 -8 -130 -8 l-40 -2 -2 283 -2 282 302 0 302 0 -5 -262z m747
35 l-2 -227 -29 -7 c-16 -5 -70 -11 -120 -14 -108 -8 -157 -11 -251 -19 -38
-4 -100 -8 -137 -11 l-68 -5 0 255 0 255 304 0 305 0 -2 -227z m733 28 c0
-229 12 -207 -115 -216 -44 -3 -105 -7 -135 -10 -101 -8 -194 -15 -262 -20
l-67 -5 -3 225 -3 225 293 0 292 0 0 -199z m483 185 c3 -8 3 -17 -1 -21 -6 -6
-8 -22 -15 -125 -1 -19 -5 -40 -9 -46 -4 -6 -5 -25 -3 -42 2 -17 0 -34 -5 -37
-6 -3 -8 -21 -5 -40 5 -40 -3 -47 -59 -50 -110 -7 -221 -17 -228 -21 -4 -3 -8
85 -8 195 l0 201 164 0 c131 0 165 -3 169 -14z m-3728 -2314 c61 -24 79 -38
102 -82 22 -43 39 -170 22 -170 -4 0 -9 -10 -13 -23 -5 -22 -32 -54 -70 -85
-9 -7 -16 -10 -16 -7 0 3 -12 -1 -27 -8 -34 -17 -108 -13 -159 8 -44 18 -84
52 -84 72 0 7 -5 13 -11 13 -5 0 -8 4 -5 8 3 5 -2 21 -10 36 -16 32 -19 83 -5
88 6 2 11 16 13 31 8 54 83 125 126 118 6 -1 12 2 12 6 0 12 90 8 125 -5z
m3476 0 c15 -6 30 -8 33 -5 3 4 6 1 6 -5 0 -7 6 -12 14 -12 18 0 61 -57 71
-95 10 -35 13 -128 5 -135 -3 -3 -14 -23 -25 -45 -15 -30 -33 -46 -69 -64 -28
-13 -61 -25 -75 -26 -39 -5 -123 15 -153 36 -31 23 -69 80 -71 109 -1 11 -5
20 -9 20 -10 0 -10 54 0 64 7 8 9 13 11 44 2 37 96 120 129 114 6 -2 12 1 12
6 0 11 88 7 121 -6z"/>
<path d="M2077 465 c-32 -22 -52 -50 -49 -67 1 -5 -2 -8 -8 -8 -5 0 -10 -13
-10 -30 0 -16 3 -30 8 -30 4 0 13 -12 20 -27 32 -71 118 -89 180 -38 32 27 43
49 47 97 2 33 -3 47 -24 71 -52 58 -109 69 -164 32z"/>
<path d="M5567 471 c-27 -17 -73 -71 -62 -71 4 0 2 -7 -5 -15 -7 -8 -10 -25
-6 -40 8 -31 75 -107 87 -99 5 3 9 1 9 -4 0 -5 16 -9 35 -9 19 0 35 4 35 9 0
5 4 7 8 4 5 -3 24 10 42 29 28 29 34 43 35 82 1 38 -4 54 -25 76 -47 53 -107
68 -153 38z"/>
</g>
</svg>
